#!OML:ASF E:/inclinewalkrobotboard/Project1/Captureday1/Session1/subject1.ASF
:FULLY-SPECIFIED
:DEGREES
101
root 0 0 0 -1.1481637182208468 -2.8512681861568248 -0.8600160499573892
lowerback 10.95416436737279 0.5639125552770013 0.46710857922046395
upperback -1.1323761946437352 0.8816259176033211 0.904462202873597
thorax -7.316052059481617 0.405924918638691 0.44117624140137335
lowerneck -13.362066445086962 -1.3910656431822146 0.24051242989192584
upperneck 19.04623798032422 -1.3798325962203237 -2.38480342097066
head 8.20429707959002 -0.7984863600337906 -1.017140294656976
rclavicle -4.555054984296308E-16 -2.31691584935815E-16
rhumerus -11.633857403729344 -6.675322386741392 -67.18839096942253
rradius 43.08538517894838
rwrist 12.081061786351928
rhand -23.650352766535978 -5.761156021594676
rfingers 7.125020000000133
rthumb 3.052729030862168 -35.914573468378364
lclavicle -9.613600473749402E-16 -8.124559545651397E-16
lhumerus -11.680207433554244 -4.279603002065729 68.19134392209874
lradius 44.24120942056638
lwrist -5.473856526364161
lhand -33.558100083860886 -12.042187771258057
lfingers 7.125020000000126
lthumb -6.842940377290192 17.02056208036931
rfemur -26.31647997873504 -0.015853012732164107 19.236077605786466
rtibia 65.18728642983045
rfoot 5.2347410702906565 -5.6251002214584425
rtoes 7.725729324501619
lfemur 13.67545159416183 -4.51830703612695 -30.386865571842314
ltibia 13.845904927200273
lfoot -14.45762863952169 -2.4781698502134235
ltoes -3.5562964259791663
102
root 0 0 0 -1.1417500658983624 -2.852599733870725 -0.8535196669104266
lowerback 10.956448350933732 0.5644186766131704 0.46459781054546645
upperback -1.1399957625233452 0.8818105788972588 0.9010171089975703
thorax -7.3263633698677735 0.40618162121360124 0.4383972192664838
lowerneck -13.344246237997572 -1.3836907302718746 0.2509985108732235
upperneck 19.045068121889802 -1.369063589897823 -2.39969388002423
head 8.201073137246151 -0.7937946178309463 -1.0226246466558442
rclavicle -4.54758542083919E-16 -2.4008502844611414E-16
rhumerus -11.493078288880607 -6.582628590132136 -67.10069924920361
rradius 43.21946490072017
rwrist 12.148359964386836
rhand -23.697609760867234 -5.9936822894763555
rfingers 7.1250200000001325
rthumb 3.0046469590398965 -36.144624657587954
lclavicle -9.534842105176836E-16 -8.169283568969664E-16
lhumerus -11.369541814144739 -4.355213306855923 67.96979610719742
lradius 44.48991369859602
lwrist -5.643857441741616
lhand -33.66486992034551 -12.612258694868347
lfingers 7.125020000000125
lthumb -6.945020149385343 16.455486845014867
rfemur -29.012687187027353 0.1921647356087699 18.36558131079014
rtibia 61.9048762258861
rfoot 4.5669672284135885 -6.554772103957415
rtoes 6.5335455643875155
lfemur 15.212061048696293 -4.2190704564497805 -30.73467608161343
ltibia 16.05054276821138
lfoot -13.789489186557223 -3.69347239048364
ltoes -4.290710942524925
103
root 0 0 0 -1.1373241365002094 -2.8534603759368418 -0.8490988893715232
lowerback 10.957981637842147 0.5647097307067557 0.4627659094468958
upperback -1.1451466790955016 0.8819069918939668 0.898708235265723
thorax -7.333437927555444 0.4063376990696406 0.4365412562184073
lowerneck -13.3319436396343 -1.3786667464337428 0.2582065145589996
upperneck 19.044091036020752 -1.3618749575117262 -2.409943335410407
head 8.198844124324554 -0.7906211097957152 -1.0263876934745608
rclavicle -4.546607052521354E-16 -2.472391040389142E-16
rhumerus -11.375754898058815 -6.505618096419863 -67.0275841975813
rradius 43.33096420539722
rwrist 12.20449231092597
rhand -23.73691397707727 -6.187131636405933
rfingers 7.125020000000132
rthumb 2.9647569657323825 -36.33639845889966
lclavicle -9.460731120556457E-16 -8.207522025391837E-16
lhumerus -11.09198564845688 -4.42295555500245 67.77177339570784
lradius 44.711712512842574
lwrist -5.795197790175173
lhand -33.76056338980692 -13.122259785337576
lfingers 7.1250200000001245
lthumb -7.036326609545942 15.951310530418779
rfemur -30.99117906662559 0.5512100025132805 17.815611941575153
rtibia 58.09048263354343
rfoot 3.6223586057504704 -7.3963592377930105
rtoes 5.387550684403141
lfemur 16.644568054087216 -3.9008942048035657 -31.00173129507791
ltibia 18.46699516970918
lfoot -12.986771129704703 -4.973862951101749
ltoes -5.062171618756754
104
root 0 0 0 -1.1351539941170667 -2.853782558362656 -0.8470464393481671
lowerback 10.958667378050038 0.5647623499803892 0.46169981742036204
upperback -1.1474936257029857 0.8818951091828844 0.8976848366969309
thorax -7.336837061515722 0.4063838968716569 0.43572826848714635
lowerneck -13.32591482891598 -1.376305753970958 0.26168175775749475
upperneck 19.04338326210292 -1.358710280115611 -2.4149404008484225
head 8.197758355322595 -0.7891636305190683 -1.0282099006860952
rclavicle -4.550339556001318E-16 -2.5269723188443887E-16
rhumerus -11.290220338559578 -6.4498470724717905 -66.97424074536117
rradius 43.41210418248375
rwrist 12.245496303791255
rhand -23.76549916460051 -6.328048655123242
rfingers 7.125020000000132
rthumb 2.935807519756607 -36.476509283009335
lclavicle -9.393160849186875E-16 -8.237058224298763E-16
lhumerus -10.863721832941994 -4.478857326440001 67.60890422832867
lradius 44.89377288905071
lwrist -5.919242543250074
lhand -33.839500392733775 -13.542443958847668
lfingers 7.125020000000123
lthumb -7.1115260226389125 15.537404568158093
rfemur -32.232732547102906 1.0478540415024222 17.591070832334555
rtibia 53.84720734466601
rfoot 2.4249966598787207 -8.132396075788968
rtoes 4.308306390153269
lfemur 17.878312217837696 -3.5734408561989723 -31.174152065744412
ltibia 21.009213926348174
lfoot -12.080021360659709 -6.261070339113156
ltoes -5.807478175968436
